<?xml version="1.0" encoding="UTF-8" standalone="no"?>
<svg xmlns="http://www.w3.org/2000/svg" version="1.1" xmlns:xlink="http://www.w3.org/1999/xlink"
    xmlns:svgjs="http://svgjs.dev/svgjs" width="1000" height="1125" viewBox="0 0 1000 1125">
    <g transform="matrix(1,0,0,1,0.0011008540699322111,0)">
        <svg viewBox="0 0 320 360" data-background-color="#ffffff"
            preserveAspectRatio="xMidYMid meet" height="1125" width="1000"
            xmlns="http://www.w3.org/2000/svg" xmlns:xlink="http://www.w3.org/1999/xlink">
            <g id="tight-bounds" transform="matrix(1,0,0,1,0.00010353528136874957,0)">
                <svg viewBox="0 0 320 360" height="360" width="320">
                    <g>
                        <svg></svg>
                    </g>
                    <g>
                        <svg viewBox="0 0 320 360" height="360" width="320">
                            <g>
                                <path xmlns="http://www.w3.org/2000/svg"
                                    d="M307.925 179.999l6.575-11.387c11.322-19.607 4.604-44.679-15.003-56.001l-11.387-6.575v-13.151c0-22.639-18.354-40.994-40.994-40.994h-13.151l-6.575-11.387c-11.322-19.607-36.393-26.325-56.001-15.003l-11.39 6.572-11.387-6.576c-19.607-11.318-44.679-4.6-56.001 15.007l-6.575 11.387h-13.151c-22.639 0-40.994 18.354-40.994 40.994v13.151l-11.387 6.575c-19.607 11.322-26.325 36.393-15.003 56.001l6.572 11.387-6.576 11.387c-11.318 19.607-4.6 44.679 15.007 56l11.387 6.576v13.15c0 22.639 18.354 40.994 40.994 40.994h13.151l6.575 11.387c11.322 19.607 36.393 26.325 56.001 15.003l11.387-6.571 11.387 6.575c19.607 11.322 44.679 4.604 56-15.003l6.576-11.387h13.15c22.639 0 40.994-18.354 40.994-40.994v-13.151l11.387-6.575c19.607-11.322 26.325-36.393 15.003-56.001zM297.702 115.716c8.655 4.996 14.842 13.062 17.428 22.713 2.586 9.65 1.261 19.734-3.735 28.384l-5.538 9.596-17.747-30.74v-35.494zM251.155 271.155l-57.791 33.365h-66.731l-57.791-33.365-33.365-57.791v-66.731l33.365-57.791 57.791-33.365h66.731l57.791 33.365 33.365 57.791v66.731zM284.517 220.539v31.351l-27.151 15.676zM247.566 277.366l-15.676 27.151h-31.351zM187.15 308.106l-27.151 15.676-27.151-15.676zM119.459 304.517h-31.352l-15.676-27.151zM62.632 267.566l-27.151-15.676v-31.351zM31.891 207.15l-15.675-27.151 15.675-27.151zM35.481 139.459v-31.352l27.151-15.676zM72.431 82.632l15.676-27.151h31.352zM132.848 51.891l27.151-15.675 27.151 15.675zM200.539 55.481h31.351l15.676 27.151zM257.366 92.431l27.151 15.676v31.352zM288.106 152.848l15.676 27.151-15.676 27.151zM247.112 55.481c9.992 0 19.384 3.889 26.452 10.956 7.063 7.063 10.956 16.46 10.957 26.452v11.079l-30.741-17.747-17.747-30.74zM173.18 28.606c8.655-4.996 18.735-6.322 28.385-3.735 9.65 2.586 17.716 8.777 22.712 17.428l5.538 9.596h-35.494l-30.741-17.747zM95.716 42.295c4.996-8.655 13.062-14.842 22.713-17.428 9.65-2.586 19.734-1.261 28.384 3.736l9.596 5.537-30.74 17.747h-35.494zM35.481 92.885c0-9.992 3.889-19.384 10.956-26.452 7.063-7.063 16.46-10.956 26.452-10.956h11.079l-17.747 30.74-30.74 17.747zM8.606 166.817c-4.996-8.655-6.322-18.735-3.735-28.385 2.586-9.65 8.777-17.716 17.428-22.712l9.596-5.538v35.495l-17.747 30.74zM22.295 244.281c-8.655-4.996-14.842-13.062-17.428-22.712-2.586-9.65-1.261-19.734 3.736-28.385l5.537-9.596 17.747 30.74v35.495zM72.885 304.517c-9.992 0-19.384-3.889-26.452-10.957-7.063-7.063-10.956-16.46-10.956-26.451v-11.08l30.74 17.747 17.747 30.741zM146.817 331.391c-8.655 4.996-18.735 6.322-28.385 3.735-9.65-2.586-17.716-8.777-22.712-17.428l-5.538-9.596h35.495l30.74 17.747zM224.281 317.702c-4.996 8.655-13.062 14.842-22.712 17.428-9.65 2.586-19.734 1.261-28.385-3.735l-9.596-5.538 30.74-17.747h35.495zM284.517 267.112c0 9.992-3.889 19.384-10.957 26.452-7.063 7.063-16.46 10.956-26.451 10.957h-11.08l17.747-30.741 30.741-17.747zM315.13 221.565c-2.586 9.65-8.777 17.716-17.428 22.712l-9.596 5.538v-35.494l17.747-30.741 5.538 9.596c4.996 8.658 6.326 18.739 3.739 28.389z"
                                    fill="#ea2a1d" fill-rule="nonzero" stroke="none"
                                    stroke-width="1" stroke-linecap="butt" stroke-linejoin="miter"
                                    stroke-miterlimit="10" stroke-dasharray="" stroke-dashoffset="0"
                                    font-family="none" font-weight="none" font-size="none"
                                    text-anchor="none" style="mix-blend-mode: normal"
                                    data-fill-palette-color="tertiary"></path>
                            </g>
                            <g transform="matrix(1,0,0,1,64,121.1361587015329)">
                                <svg viewBox="0 0 192 117.72768259693417"
                                    height="117.72768259693417" width="192">
                                    <g>
                                        <svg viewBox="0 0 192 117.72768259693417"
                                            height="117.72768259693417" width="192">
                                            <g>
                                                <svg viewBox="0 0 192 117.72768259693417"
                                                    height="117.72768259693417" width="192">
                                                    <g>
                                                        <svg viewBox="0 0 192 117.72768259693417"
                                                            height="117.72768259693417" width="192">
                                                            <g id="textblocktransform">
                                                                <svg
                                                                    viewBox="0 0 192 117.72768259693417"
                                                                    height="117.72768259693417"
                                                                    width="192" id="textblock">
                                                                    <g>
                                                                        <svg
                                                                            viewBox="0 0 192 117.72768259693417"
                                                                            height="117.72768259693417"
                                                                            width="192">
                                                                            <g
                                                                                transform="matrix(1,0,0,1,0,0)">
                                                                                <svg width="192"
                                                                                    viewBox="2.5999999046325684 -33.400001525878906 55.45000076293945 34"
                                                                                    height="117.72768259693417"
                                                                                    data-palette-color="#ea1e18">
                                                                                    <path
                                                                                        d="M17.4 0.6L17.4 0.6Q14.15 0.6 11.43-0.55 8.7-1.7 6.75-3.88 4.8-6.05 3.7-9.22 2.6-12.4 2.6-16.4L2.6-16.4Q2.6-20.35 3.73-23.5 4.85-26.65 6.85-28.85 8.85-31.05 11.63-32.23 14.4-33.4 17.65-33.4L17.65-33.4Q19.35-33.4 20.78-33.05 22.2-32.7 23.38-32.13 24.55-31.55 25.48-30.83 26.4-30.1 27.1-29.35L27.1-29.35 24.8-26.65Q23.55-27.95 21.9-28.85 20.25-29.75 17.75-29.75L17.75-29.75Q15.25-29.75 13.25-28.83 11.25-27.9 9.85-26.18 8.45-24.45 7.68-22 6.9-19.55 6.9-16.5L6.9-16.5Q6.9-13.4 7.63-10.93 8.35-8.45 9.73-6.7 11.1-4.95 13.13-4 15.15-3.05 17.8-3.05L17.8-3.05Q19.55-3.05 21.13-3.58 22.7-4.1 23.7-5L23.7-5 23.7-13.55 16.75-13.55 16.75-17 27.5-17 27.5-3.2Q25.9-1.55 23.3-0.48 20.7 0.6 17.4 0.6ZM39.5 0L35.35 0 35.35-32.8 45.6-32.8Q48.1-32.8 50.22-32.33 52.35-31.85 53.87-30.75 55.4-29.65 56.25-27.9 57.1-26.15 57.1-23.6L57.1-23.6Q57.1-19.75 55.1-17.45 53.1-15.15 49.7-14.3L49.7-14.3 58.05 0 53.35 0 45.45-13.85 39.5-13.85 39.5 0ZM39.5-29.45L39.5-17.25 45-17.25Q48.85-17.25 50.9-18.82 52.95-20.4 52.95-23.6L52.95-23.6Q52.95-26.85 50.9-28.15 48.85-29.45 45-29.45L45-29.45 39.5-29.45Z"
                                                                                        opacity="1"
                                                                                        transform="matrix(1,0,0,1,0,0)"
                                                                                        fill="#ea1e18"
                                                                                        class="undefined-text-0"
                                                                                        data-fill-palette-color="primary"
                                                                                        id="text-0"></path>
                                                                                </svg>
                                                                            </g>
                                                                        </svg>
                                                                    </g>
                                                                </svg>
                                                            </g>
                                                        </svg>
                                                    </g>
                                                </svg>
                                            </g>
                                        </svg>
                                    </g>
                                </svg>
                            </g>
                        </svg>
                    </g>
                    <defs></defs>
                </svg>
                <rect width="320" height="360" fill="none" stroke="none" visibility="hidden"></rect>
            </g>
        </svg>
    </g>
</svg>